solid OpenSCAD_Model
  facet normal 0 -1 0
    outer loop
      vertex 0 -3 4.5
      vertex 11 -3 16
      vertex 0 -3 16
    endloop
  endfacet
  facet normal 0 -1 -0
    outer loop
      vertex 11 -3 16
      vertex 0 -3 4.5
      vertex 11 -3 4.5
    endloop
  endfacet
  facet normal 0 1 -0
    outer loop
      vertex 11 16 4.5
      vertex 0 16 16
      vertex 11 16 16
    endloop
  endfacet
  facet normal 0 1 0
    outer loop
      vertex 0 16 16
      vertex 11 16 4.5
      vertex 0 16 4.5
    endloop
  endfacet
  facet normal -1 0 0
    outer loop
      vertex 0 13.4733 13.2391
      vertex 0 16 16
      vertex 0 16 4.5
    endloop
  endfacet
  facet normal -1 0 -0
    outer loop
      vertex 0 13.7644 14.1348
      vertex 0 16 16
      vertex 0 13.4733 13.2391
    endloop
  endfacet
  facet normal -1 0 -0
    outer loop
      vertex 0 14 16
      vertex 0 16 16
      vertex 0 13.9409 15.06
    endloop
  endfacet
  facet normal -1 0 0
    outer loop
      vertex 0 13.9409 16.94
      vertex 0 15.9251 17.1907
      vertex 0 14 16
    endloop
  endfacet
  facet normal -1 0 0
    outer loop
      vertex 0 13.7644 17.8652
      vertex 0 15.7015 18.3626
      vertex 0 13.9409 16.94
    endloop
  endfacet
  facet normal -1 -0 0
    outer loop
      vertex 0 15.7015 18.3626
      vertex 0 13.7644 17.8652
      vertex 0 15.3329 19.4972
    endloop
  endfacet
  facet normal -1 -0 0
    outer loop
      vertex 0 15.9251 17.1907
      vertex 0 13.9409 16.94
      vertex 0 15.7015 18.3626
    endloop
  endfacet
  facet normal -1 0 0
    outer loop
      vertex 0 16 16
      vertex 0 14 16
      vertex 0 15.9251 17.1907
    endloop
  endfacet
  facet normal -1 0 -0
    outer loop
      vertex 0 13.9409 15.06
      vertex 0 16 16
      vertex 0 13.7644 14.1348
    endloop
  endfacet
  facet normal -1 0 0
    outer loop
      vertex 0 16 4.5
      vertex 0 13.0723 12.3868
      vertex 0 13.4733 13.2391
    endloop
  endfacet
  facet normal -1 0 0
    outer loop
      vertex 0 16 4.5
      vertex 0 12.5676 11.5916
      vertex 0 13.0723 12.3868
    endloop
  endfacet
  facet normal -1 0 0
    outer loop
      vertex 0 16 4.5
      vertex 0 11.9673 10.8659
      vertex 0 12.5676 11.5916
    endloop
  endfacet
  facet normal -1 0 0
    outer loop
      vertex 0 16 4.5
      vertex 0 11.2807 10.2212
      vertex 0 11.9673 10.8659
    endloop
  endfacet
  facet normal -1 0 0
    outer loop
      vertex 0 11 4.5
      vertex 0 11.2807 10.2212
      vertex 0 16 4.5
    endloop
  endfacet
  facet normal -1 0 0
    outer loop
      vertex 0 11 4.5
      vertex 0 10.5187 9.66754
      vertex 0 11.2807 10.2212
    endloop
  endfacet
  facet normal -1 0 0
    outer loop
      vertex 0 11 4.5
      vertex 0 9.69334 9.2138
      vertex 0 10.5187 9.66754
    endloop
  endfacet
  facet normal -1 0 0
    outer loop
      vertex 0 11 4.5
      vertex 0 8.81763 8.86708
      vertex 0 9.69334 9.2138
    endloop
  endfacet
  facet normal -1 0 0
    outer loop
      vertex 0 11 4.5
      vertex 0 7.90536 8.63284
      vertex 0 8.81763 8.86708
    endloop
  endfacet
  facet normal -1 0 0
    outer loop
      vertex 0 11 4.5
      vertex 0 6.97093 8.5148
      vertex 0 7.90536 8.63284
    endloop
  endfacet
  facet normal -1 0 0
    outer loop
      vertex 0 11 4.5
      vertex 0 6.02907 8.5148
      vertex 0 6.97093 8.5148
    endloop
  endfacet
  facet normal -1 0 0
    outer loop
      vertex 0 0 4.5
      vertex 0 6.02907 8.5148
      vertex 0 11 4.5
    endloop
  endfacet
  facet normal -1 -0 0
    outer loop
      vertex 0 6.02907 8.5148
      vertex 0 0 4.5
      vertex 0 5.09464 8.63284
    endloop
  endfacet
  facet normal -1 -0 0
    outer loop
      vertex 0 5.09464 8.63284
      vertex 0 0 4.5
      vertex 0 4.18237 8.86708
    endloop
  endfacet
  facet normal -1 -0 0
    outer loop
      vertex 0 4.18237 8.86708
      vertex 0 0 4.5
      vertex 0 3.30665 9.2138
    endloop
  endfacet
  facet normal -1 -0 0
    outer loop
      vertex 0 3.30665 9.2138
      vertex 0 0 4.5
      vertex 0 2.4813 9.66754
    endloop
  endfacet
  facet normal -1 0 0
    outer loop
      vertex 0 0 4.5
      vertex 0 1.71932 10.2212
      vertex 0 2.4813 9.66754
    endloop
  endfacet
  facet normal -1 0 0
    outer loop
      vertex 0 0 4.5
      vertex 0 1.03273 10.8659
      vertex 0 1.71932 10.2212
    endloop
  endfacet
  facet normal -1 0 0
    outer loop
      vertex 0 -3 4.5
      vertex 0 1.03273 10.8659
      vertex 0 0 4.5
    endloop
  endfacet
  facet normal -1 -0 0
    outer loop
      vertex 0 1.03273 10.8659
      vertex 0 -3 4.5
      vertex 0 0.432372 11.5916
    endloop
  endfacet
  facet normal -1 -0 0
    outer loop
      vertex 0 0.432372 11.5916
      vertex 0 -3 4.5
      vertex 0 -0.0723009 12.3868
    endloop
  endfacet
  facet normal -1 -0 0
    outer loop
      vertex 0 -0.0723009 12.3868
      vertex 0 -3 4.5
      vertex 0 -0.473324 13.2391
    endloop
  endfacet
  facet normal -1 0 0
    outer loop
      vertex 0 -3 16
      vertex 0 -0.473324 13.2391
      vertex 0 -3 4.5
    endloop
  endfacet
  facet normal -1 0 0
    outer loop
      vertex 0 -0.0723009 19.6132
      vertex 0 -1.82491 20.5767
      vertex 0 -1.18566 21.584
    endloop
  endfacet
  facet normal -1 0 0
    outer loop
      vertex 0 -3 16
      vertex 0 -1 16
      vertex 0 -0.940861 15.06
    endloop
  endfacet
  facet normal -1 0 0
    outer loop
      vertex 0 -0.473324 13.2391
      vertex 0 -3 16
      vertex 0 -0.764374 14.1348
    endloop
  endfacet
  facet normal -1 0 0
    outer loop
      vertex 0 -1 16
      vertex 0 -3 16
      vertex 0 -2.92509 17.1907
    endloop
  endfacet
  facet normal -1 0 0
    outer loop
      vertex 0 -0.940861 16.94
      vertex 0 -2.33288 19.4972
      vertex 0 -1.82491 20.5767
    endloop
  endfacet
  facet normal -1 0 0
    outer loop
      vertex 0 -0.940861 16.94
      vertex 0 -2.70154 18.3626
      vertex 0 -2.33288 19.4972
    endloop
  endfacet
  facet normal -1 0 0
    outer loop
      vertex 0 -0.764374 14.1348
      vertex 0 -3 16
      vertex 0 -0.940861 15.06
    endloop
  endfacet
  facet normal -1 0 0
    outer loop
      vertex 0 -0.940861 16.94
      vertex 0 -2.92509 17.1907
      vertex 0 -2.70154 18.3626
    endloop
  endfacet
  facet normal -1 0 0
    outer loop
      vertex 0 13.4733 18.7609
      vertex 0 15.3329 19.4972
      vertex 0 13.7644 17.8652
    endloop
  endfacet
  facet normal -1 -0 0
    outer loop
      vertex 0 15.3329 19.4972
      vertex 0 13.4733 18.7609
      vertex 0 14.8249 20.5767
    endloop
  endfacet
  facet normal -1 0 0
    outer loop
      vertex 0 13.0723 19.6132
      vertex 0 14.8249 20.5767
      vertex 0 13.4733 18.7609
    endloop
  endfacet
  facet normal -1 -0 0
    outer loop
      vertex 0 14.8249 20.5767
      vertex 0 13.0723 19.6132
      vertex 0 14.1857 21.584
    endloop
  endfacet
  facet normal -1 0 0
    outer loop
      vertex 0 12.5676 20.4084
      vertex 0 14.1857 21.584
      vertex 0 13.0723 19.6132
    endloop
  endfacet
  facet normal -1 0 0
    outer loop
      vertex 0 12.5 20.4901
      vertex 0 14.1857 21.584
      vertex 0 12.5676 20.4084
    endloop
  endfacet
  facet normal -1 -0 0
    outer loop
      vertex 0 14.1857 21.584
      vertex 0 12.5 20.4901
      vertex 0 13.4252 22.5032
    endloop
  endfacet
  facet normal -1 -0 0
    outer loop
      vertex 0 13.4252 22.5032
      vertex 0 12.5 20.4901
      vertex 0 12.5555 23.3199
    endloop
  endfacet
  facet normal -1 -0 0
    outer loop
      vertex 0 12.5555 23.3199
      vertex 0 12.5 20.4901
      vertex 0 12.5 23.3602
    endloop
  endfacet
  facet normal -1 0 0
    outer loop
      vertex 0 0.5 20.4901
      vertex 0 0.444471 23.3199
      vertex 0 0.5 23.3602
    endloop
  endfacet
  facet normal -1 0 0
    outer loop
      vertex 0 -1.18566 21.584
      vertex 0 0.5 20.4901
      vertex 0 0.432372 20.4084
    endloop
  endfacet
  facet normal -1 0 0
    outer loop
      vertex 0 -1.18566 21.584
      vertex 0 0.432372 20.4084
      vertex 0 -0.0723009 19.6132
    endloop
  endfacet
  facet normal -1 0 0
    outer loop
      vertex 0 0.5 20.4901
      vertex 0 -0.425202 22.5032
      vertex 0 0.444471 23.3199
    endloop
  endfacet
  facet normal -1 0 0
    outer loop
      vertex 0 -1.82491 20.5767
      vertex 0 -0.0723009 19.6132
      vertex 0 -0.473324 18.7609
    endloop
  endfacet
  facet normal -1 0 0
    outer loop
      vertex 0 -1.82491 20.5767
      vertex 0 -0.473324 18.7609
      vertex 0 -0.764374 17.8652
    endloop
  endfacet
  facet normal -1 0 0
    outer loop
      vertex 0 -1.82491 20.5767
      vertex 0 -0.764374 17.8652
      vertex 0 -0.940861 16.94
    endloop
  endfacet
  facet normal -1 0 0
    outer loop
      vertex 0 0.5 20.4901
      vertex 0 -1.18566 21.584
      vertex 0 -0.425202 22.5032
    endloop
  endfacet
  facet normal -1 0 0
    outer loop
      vertex 0 -2.92509 17.1907
      vertex 0 -0.940861 16.94
      vertex 0 -1 16
    endloop
  endfacet
  facet normal -0 0 1
    outer loop
      vertex -3 11 4.5
      vertex 0 0 4.5
      vertex 0 11 4.5
    endloop
  endfacet
  facet normal 0 0 1
    outer loop
      vertex 0 0 4.5
      vertex -3 11 4.5
      vertex -3 0 4.5
    endloop
  endfacet
  facet normal -0 0 1
    outer loop
      vertex 11 11 4.5
      vertex 16 0 4.5
      vertex 16 11 4.5
    endloop
  endfacet
  facet normal 0 0 1
    outer loop
      vertex 16 0 4.5
      vertex 11 11 4.5
      vertex 11 0 4.5
    endloop
  endfacet
  facet normal 0 0 -1
    outer loop
      vertex 0 -3 4.5
      vertex 11 0 4.5
      vertex 11 -3 4.5
    endloop
  endfacet
  facet normal -0 0 -1
    outer loop
      vertex 11 0 4.5
      vertex 0 -3 4.5
      vertex 0 0 4.5
    endloop
  endfacet
  facet normal 0 0 -1
    outer loop
      vertex 0 11 4.5
      vertex 11 16 4.5
      vertex 11 11 4.5
    endloop
  endfacet
  facet normal -0 0 -1
    outer loop
      vertex 11 16 4.5
      vertex 0 11 4.5
      vertex 0 16 4.5
    endloop
  endfacet
  facet normal 1 -0 0
    outer loop
      vertex 11 0.444471 23.3199
      vertex 11 0.5 20.4901
      vertex 11 0.5 23.3602
    endloop
  endfacet
  facet normal 1 -0 0
    outer loop
      vertex 11 -0.425202 22.5032
      vertex 11 0.5 20.4901
      vertex 11 0.444471 23.3199
    endloop
  endfacet
  facet normal 1 -0 0
    outer loop
      vertex 11 -1.18566 21.584
      vertex 11 0.5 20.4901
      vertex 11 -0.425202 22.5032
    endloop
  endfacet
  facet normal 1 0 0
    outer loop
      vertex 11 0.5 20.4901
      vertex 11 -1.18566 21.584
      vertex 11 0.432372 20.4084
    endloop
  endfacet
  facet normal 1 0 0
    outer loop
      vertex 11 0.432372 20.4084
      vertex 11 -1.18566 21.584
      vertex 11 -0.0723009 19.6132
    endloop
  endfacet
  facet normal 1 -0 0
    outer loop
      vertex 11 -1.82491 20.5767
      vertex 11 -0.0723009 19.6132
      vertex 11 -1.18566 21.584
    endloop
  endfacet
  facet normal 1 0 0
    outer loop
      vertex 11 -0.0723009 19.6132
      vertex 11 -1.82491 20.5767
      vertex 11 -0.473324 18.7609
    endloop
  endfacet
  facet normal 1 0 0
    outer loop
      vertex 11 -0.473324 18.7609
      vertex 11 -2.33288 19.4972
      vertex 11 -0.764374 17.8652
    endloop
  endfacet
  facet normal 1 -0 0
    outer loop
      vertex 11 -2.33288 19.4972
      vertex 11 -0.473324 18.7609
      vertex 11 -1.82491 20.5767
    endloop
  endfacet
  facet normal 1 0 0
    outer loop
      vertex 11 15.9251 17.1907
      vertex 11 13.9409 16.94
      vertex 11 14 16
    endloop
  endfacet
  facet normal 1 0 0
    outer loop
      vertex 11 14.8249 20.5767
      vertex 11 13.7644 17.8652
      vertex 11 13.9409 16.94
    endloop
  endfacet
  facet normal 1 0 0
    outer loop
      vertex 11 14.8249 20.5767
      vertex 11 13.4733 18.7609
      vertex 11 13.7644 17.8652
    endloop
  endfacet
  facet normal 1 0 0
    outer loop
      vertex 11 12.5 20.4901
      vertex 11 14.1857 21.584
      vertex 11 13.4252 22.5032
    endloop
  endfacet
  facet normal 1 0 0
    outer loop
      vertex 11 14.8249 20.5767
      vertex 11 13.0723 19.6132
      vertex 11 13.4733 18.7609
    endloop
  endfacet
  facet normal 1 0 0
    outer loop
      vertex 11 14.1857 21.584
      vertex 11 12.5676 20.4084
      vertex 11 13.0723 19.6132
    endloop
  endfacet
  facet normal 1 0 0
    outer loop
      vertex 11 12.5 20.4901
      vertex 11 13.4252 22.5032
      vertex 11 12.5555 23.3199
    endloop
  endfacet
  facet normal 1 0 0
    outer loop
      vertex 11 12.5 20.4901
      vertex 11 12.5555 23.3199
      vertex 11 12.5 23.3602
    endloop
  endfacet
  facet normal 1 0 0
    outer loop
      vertex 11 14.1857 21.584
      vertex 11 12.5 20.4901
      vertex 11 12.5676 20.4084
    endloop
  endfacet
  facet normal 1 0 0
    outer loop
      vertex 11 14 16
      vertex 11 16 16
      vertex 11 15.9251 17.1907
    endloop
  endfacet
  facet normal 1 0 0
    outer loop
      vertex 11 13.9409 16.94
      vertex 11 15.9251 17.1907
      vertex 11 15.7015 18.3626
    endloop
  endfacet
  facet normal 1 0 0
    outer loop
      vertex 11 13.9409 16.94
      vertex 11 15.7015 18.3626
      vertex 11 15.3329 19.4972
    endloop
  endfacet
  facet normal 1 0 0
    outer loop
      vertex 11 13.9409 16.94
      vertex 11 15.3329 19.4972
      vertex 11 14.8249 20.5767
    endloop
  endfacet
  facet normal 1 0 0
    outer loop
      vertex 11 13.0723 19.6132
      vertex 11 14.8249 20.5767
      vertex 11 14.1857 21.584
    endloop
  endfacet
  facet normal 1 0 0
    outer loop
      vertex 11 16 16
      vertex 11 14 16
      vertex 11 13.9409 15.06
    endloop
  endfacet
  facet normal 1 0 0
    outer loop
      vertex 11 16 16
      vertex 11 13.9409 15.06
      vertex 11 13.7644 14.1348
    endloop
  endfacet
  facet normal 1 0 0
    outer loop
      vertex 11 16 16
      vertex 11 13.7644 14.1348
      vertex 11 13.4733 13.2391
    endloop
  endfacet
  facet normal 1 0 0
    outer loop
      vertex 11 16 16
      vertex 11 13.4733 13.2391
      vertex 11 16 4.5
    endloop
  endfacet
  facet normal 1 -0 0
    outer loop
      vertex 11 13.0723 12.3868
      vertex 11 16 4.5
      vertex 11 13.4733 13.2391
    endloop
  endfacet
  facet normal 1 -0 0
    outer loop
      vertex 11 12.5676 11.5916
      vertex 11 16 4.5
      vertex 11 13.0723 12.3868
    endloop
  endfacet
  facet normal 1 -0 0
    outer loop
      vertex 11 11.9673 10.8659
      vertex 11 16 4.5
      vertex 11 12.5676 11.5916
    endloop
  endfacet
  facet normal 1 -0 0
    outer loop
      vertex 11 11.2807 10.2212
      vertex 11 16 4.5
      vertex 11 11.9673 10.8659
    endloop
  endfacet
  facet normal 1 0 0
    outer loop
      vertex 11 11.2807 10.2212
      vertex 11 11 4.5
      vertex 11 16 4.5
    endloop
  endfacet
  facet normal 1 -0 0
    outer loop
      vertex 11 10.5187 9.66754
      vertex 11 11 4.5
      vertex 11 11.2807 10.2212
    endloop
  endfacet
  facet normal 1 -0 0
    outer loop
      vertex 11 9.69334 9.2138
      vertex 11 11 4.5
      vertex 11 10.5187 9.66754
    endloop
  endfacet
  facet normal 1 -0 0
    outer loop
      vertex 11 8.81763 8.86708
      vertex 11 11 4.5
      vertex 11 9.69334 9.2138
    endloop
  endfacet
  facet normal 1 -0 0
    outer loop
      vertex 11 7.90536 8.63284
      vertex 11 11 4.5
      vertex 11 8.81763 8.86708
    endloop
  endfacet
  facet normal 1 -0 0
    outer loop
      vertex 11 6.97093 8.5148
      vertex 11 11 4.5
      vertex 11 7.90536 8.63284
    endloop
  endfacet
  facet normal 1 -0 0
    outer loop
      vertex 11 6.02907 8.5148
      vertex 11 11 4.5
      vertex 11 6.97093 8.5148
    endloop
  endfacet
  facet normal 1 0 0
    outer loop
      vertex 11 0 4.5
      vertex 11 6.02907 8.5148
      vertex 11 5.09464 8.63284
    endloop
  endfacet
  facet normal 1 0 0
    outer loop
      vertex 11 0 4.5
      vertex 11 5.09464 8.63284
      vertex 11 4.18237 8.86708
    endloop
  endfacet
  facet normal 1 0 0
    outer loop
      vertex 11 0 4.5
      vertex 11 4.18237 8.86708
      vertex 11 3.30665 9.2138
    endloop
  endfacet
  facet normal 1 0 0
    outer loop
      vertex 11 0 4.5
      vertex 11 3.30665 9.2138
      vertex 11 2.4813 9.66754
    endloop
  endfacet
  facet normal 1 0 0
    outer loop
      vertex 11 6.02907 8.5148
      vertex 11 0 4.5
      vertex 11 11 4.5
    endloop
  endfacet
  facet normal 1 0 0
    outer loop
      vertex 11 1.71932 10.2212
      vertex 11 0 4.5
      vertex 11 2.4813 9.66754
    endloop
  endfacet
  facet normal 1 0 0
    outer loop
      vertex 11 1.03273 10.8659
      vertex 11 0 4.5
      vertex 11 1.71932 10.2212
    endloop
  endfacet
  facet normal 1 0 0
    outer loop
      vertex 11 -3 4.5
      vertex 11 1.03273 10.8659
      vertex 11 0.432372 11.5916
    endloop
  endfacet
  facet normal 1 0 0
    outer loop
      vertex 11 -3 4.5
      vertex 11 0.432372 11.5916
      vertex 11 -0.0723009 12.3868
    endloop
  endfacet
  facet normal 1 0 0
    outer loop
      vertex 11 -3 4.5
      vertex 11 -0.0723009 12.3868
      vertex 11 -0.473324 13.2391
    endloop
  endfacet
  facet normal 1 0 0
    outer loop
      vertex 11 -3 16
      vertex 11 -0.473324 13.2391
      vertex 11 -0.764374 14.1348
    endloop
  endfacet
  facet normal 1 0 0
    outer loop
      vertex 11 -3 16
      vertex 11 -0.764374 14.1348
      vertex 11 -0.940861 15.06
    endloop
  endfacet
  facet normal 1 -0 0
    outer loop
      vertex 11 -2.70154 18.3626
      vertex 11 -0.764374 17.8652
      vertex 11 -2.33288 19.4972
    endloop
  endfacet
  facet normal 1 0 0
    outer loop
      vertex 11 -0.764374 17.8652
      vertex 11 -2.70154 18.3626
      vertex 11 -0.940861 16.94
    endloop
  endfacet
  facet normal 1 -0 0
    outer loop
      vertex 11 -2.92509 17.1907
      vertex 11 -0.940861 16.94
      vertex 11 -2.70154 18.3626
    endloop
  endfacet
  facet normal 1 0 0
    outer loop
      vertex 11 -0.940861 16.94
      vertex 11 -2.92509 17.1907
      vertex 11 -1 16
    endloop
  endfacet
  facet normal 1 0 0
    outer loop
      vertex 11 -3 16
      vertex 11 -1 16
      vertex 11 -2.92509 17.1907
    endloop
  endfacet
  facet normal 1 0 0
    outer loop
      vertex 11 -1 16
      vertex 11 -3 16
      vertex 11 -0.940861 15.06
    endloop
  endfacet
  facet normal 1 0 0
    outer loop
      vertex 11 -0.473324 13.2391
      vertex 11 -3 16
      vertex 11 -3 4.5
    endloop
  endfacet
  facet normal 1 0 0
    outer loop
      vertex 11 1.03273 10.8659
      vertex 11 -3 4.5
      vertex 11 0 4.5
    endloop
  endfacet
  facet normal 0 0.998027 0.0627801
    outer loop
      vertex 11 16 16
      vertex 0 15.9251 17.1907
      vertex 11 15.9251 17.1907
    endloop
  endfacet
  facet normal 0 0.998027 0.0627801
    outer loop
      vertex 0 15.9251 17.1907
      vertex 11 16 16
      vertex 0 16 16
    endloop
  endfacet
  facet normal -0 0.587565 0.809177
    outer loop
      vertex 0 12.5555 23.3199
      vertex 11 12.5 23.3602
      vertex 11 12.5555 23.3199
    endloop
  endfacet
  facet normal 0 0.587565 0.809177
    outer loop
      vertex 11 12.5 23.3602
      vertex 0 12.5555 23.3199
      vertex 0 12.5 23.3602
    endloop
  endfacet
  facet normal 0 -0.951055 0.309022
    outer loop
      vertex 0 -2.70154 18.3626
      vertex 11 -2.33288 19.4972
      vertex 0 -2.33288 19.4972
    endloop
  endfacet
  facet normal 0 -0.951055 0.309022
    outer loop
      vertex 11 -2.33288 19.4972
      vertex 0 -2.70154 18.3626
      vertex 11 -2.70154 18.3626
    endloop
  endfacet
  facet normal 0 0.904819 0.425797
    outer loop
      vertex 11 15.3329 19.4972
      vertex 0 14.8249 20.5767
      vertex 11 14.8249 20.5767
    endloop
  endfacet
  facet normal 0 0.904819 0.425797
    outer loop
      vertex 0 14.8249 20.5767
      vertex 11 15.3329 19.4972
      vertex 0 15.3329 19.4972
    endloop
  endfacet
  facet normal 0 0.98228 0.18742
    outer loop
      vertex 11 15.9251 17.1907
      vertex 0 15.7015 18.3626
      vertex 11 15.7015 18.3626
    endloop
  endfacet
  facet normal 0 0.98228 0.18742
    outer loop
      vertex 0 15.7015 18.3626
      vertex 11 15.9251 17.1907
      vertex 0 15.9251 17.1907
    endloop
  endfacet
  facet normal 0 0.844348 0.535796
    outer loop
      vertex 11 14.8249 20.5767
      vertex 0 14.1857 21.584
      vertex 11 14.1857 21.584
    endloop
  endfacet
  facet normal 0 0.844348 0.535796
    outer loop
      vertex 0 14.1857 21.584
      vertex 11 14.8249 20.5767
      vertex 0 14.8249 20.5767
    endloop
  endfacet
  facet normal -0 0.684546 0.72897
    outer loop
      vertex 0 13.4252 22.5032
      vertex 11 12.5555 23.3199
      vertex 11 13.4252 22.5032
    endloop
  endfacet
  facet normal 0 0.684546 0.72897
    outer loop
      vertex 11 12.5555 23.3199
      vertex 0 13.4252 22.5032
      vertex 0 12.5555 23.3199
    endloop
  endfacet
  facet normal 0 -0.982288 0.18738
    outer loop
      vertex 0 -2.92509 17.1907
      vertex 11 -2.70154 18.3626
      vertex 0 -2.70154 18.3626
    endloop
  endfacet
  facet normal 0 -0.982288 0.18738
    outer loop
      vertex 11 -2.70154 18.3626
      vertex 0 -2.92509 17.1907
      vertex 11 -2.92509 17.1907
    endloop
  endfacet
  facet normal 0 -0.998027 0.0627884
    outer loop
      vertex 0 -3 16
      vertex 11 -2.92509 17.1907
      vertex 0 -2.92509 17.1907
    endloop
  endfacet
  facet normal 0 -0.998027 0.0627884
    outer loop
      vertex 11 -2.92509 17.1907
      vertex 0 -3 16
      vertex 11 -3 16
    endloop
  endfacet
  facet normal 0 -0.904828 0.425776
    outer loop
      vertex 0 -2.33288 19.4972
      vertex 11 -1.82491 20.5767
      vertex 0 -1.82491 20.5767
    endloop
  endfacet
  facet normal 0 -0.904828 0.425776
    outer loop
      vertex 11 -1.82491 20.5767
      vertex 0 -2.33288 19.4972
      vertex 11 -2.33288 19.4972
    endloop
  endfacet
  facet normal 0 -0.844329 0.535826
    outer loop
      vertex 0 -1.82491 20.5767
      vertex 11 -1.18566 21.584
      vertex 0 -1.18566 21.584
    endloop
  endfacet
  facet normal 0 -0.844329 0.535826
    outer loop
      vertex 11 -1.18566 21.584
      vertex 0 -1.82491 20.5767
      vertex 11 -1.82491 20.5767
    endloop
  endfacet
  facet normal 0 -0.587364 0.809323
    outer loop
      vertex 0 0.5 23.3602
      vertex 11 0.444471 23.3199
      vertex 11 0.5 23.3602
    endloop
  endfacet
  facet normal 0 -0.587364 0.809323
    outer loop
      vertex 11 0.444471 23.3199
      vertex 0 0.5 23.3602
      vertex 0 0.444471 23.3199
    endloop
  endfacet
  facet normal 0 0.95107 0.308976
    outer loop
      vertex 11 15.7015 18.3626
      vertex 0 15.3329 19.4972
      vertex 11 15.3329 19.4972
    endloop
  endfacet
  facet normal 0 0.95107 0.308976
    outer loop
      vertex 0 15.3329 19.4972
      vertex 11 15.7015 18.3626
      vertex 0 15.7015 18.3626
    endloop
  endfacet
  facet normal 0 0.770484 0.63746
    outer loop
      vertex 11 14.1857 21.584
      vertex 0 13.4252 22.5032
      vertex 11 13.4252 22.5032
    endloop
  endfacet
  facet normal 0 0.770484 0.63746
    outer loop
      vertex 0 13.4252 22.5032
      vertex 11 14.1857 21.584
      vertex 0 14.1857 21.584
    endloop
  endfacet
  facet normal 0 -0.684557 0.728959
    outer loop
      vertex 0 0.444471 23.3199
      vertex 11 -0.425202 22.5032
      vertex 11 0.444471 23.3199
    endloop
  endfacet
  facet normal 0 -0.684557 0.728959
    outer loop
      vertex 11 -0.425202 22.5032
      vertex 0 0.444471 23.3199
      vertex 0 -0.425202 22.5032
    endloop
  endfacet
  facet normal 0 -0.770501 0.637439
    outer loop
      vertex 0 -1.18566 21.584
      vertex 11 -0.425202 22.5032
      vertex 0 -0.425202 22.5032
    endloop
  endfacet
  facet normal 0 -0.770501 0.637439
    outer loop
      vertex 11 -0.425202 22.5032
      vertex 0 -1.18566 21.584
      vertex 11 -1.18566 21.584
    endloop
  endfacet
  facet normal 0 -0.998029 -0.0627484
    outer loop
      vertex 0 14 16
      vertex 11 13.9409 16.94
      vertex 0 13.9409 16.94
    endloop
  endfacet
  facet normal 0 -0.998029 -0.0627484
    outer loop
      vertex 11 13.9409 16.94
      vertex 0 14 16
      vertex 11 14 16
    endloop
  endfacet
  facet normal 0 -0.904852 -0.425725
    outer loop
      vertex 0 13.4733 18.7609
      vertex 11 13.0723 19.6132
      vertex 0 13.0723 19.6132
    endloop
  endfacet
  facet normal 0 -0.904852 -0.425725
    outer loop
      vertex 11 13.0723 19.6132
      vertex 0 13.4733 18.7609
      vertex 11 13.4733 18.7609
    endloop
  endfacet
  facet normal 0 0.95105 -0.309036
    outer loop
      vertex 11 -0.764374 17.8652
      vertex 0 -0.473324 18.7609
      vertex 11 -0.473324 18.7609
    endloop
  endfacet
  facet normal 0 0.95105 -0.309036
    outer loop
      vertex 0 -0.473324 18.7609
      vertex 11 -0.764374 17.8652
      vertex 0 -0.764374 17.8652
    endloop
  endfacet
  facet normal 0 -0.844304 -0.535865
    outer loop
      vertex 0 13.0723 19.6132
      vertex 11 12.5676 20.4084
      vertex 0 12.5676 20.4084
    endloop
  endfacet
  facet normal 0 -0.844304 -0.535865
    outer loop
      vertex 11 12.5676 20.4084
      vertex 0 13.0723 19.6132
      vertex 11 13.0723 19.6132
    endloop
  endfacet
  facet normal 0 0.844317 -0.535845
    outer loop
      vertex 11 -0.0723009 19.6132
      vertex 0 0.432372 20.4084
      vertex 11 0.432372 20.4084
    endloop
  endfacet
  facet normal 0 0.844317 -0.535845
    outer loop
      vertex 0 0.432372 20.4084
      vertex 11 -0.0723009 19.6132
      vertex 0 -0.0723009 19.6132
    endloop
  endfacet
  facet normal 0 -0.587809 0.809
    outer loop
      vertex 0 11.2807 10.2212
      vertex 11 10.5187 9.66754
      vertex 11 11.2807 10.2212
    endloop
  endfacet
  facet normal 0 -0.587809 0.809
    outer loop
      vertex 11 10.5187 9.66754
      vertex 0 11.2807 10.2212
      vertex 0 10.5187 9.66754
    endloop
  endfacet
  facet normal 0 0.844317 0.535845
    outer loop
      vertex 11 0.432372 11.5916
      vertex 0 -0.0723009 12.3868
      vertex 11 -0.0723009 12.3868
    endloop
  endfacet
  facet normal 0 0.844317 0.535845
    outer loop
      vertex 0 -0.0723009 12.3868
      vertex 11 0.432372 11.5916
      vertex 0 0.432372 11.5916
    endloop
  endfacet
  facet normal 0 -0.951035 -0.309084
    outer loop
      vertex 0 13.7644 17.8652
      vertex 11 13.4733 18.7609
      vertex 0 13.4733 18.7609
    endloop
  endfacet
  facet normal 0 -0.951035 -0.309084
    outer loop
      vertex 11 13.4733 18.7609
      vertex 0 13.7644 17.8652
      vertex 11 13.7644 17.8652
    endloop
  endfacet
  facet normal 0 -0.770458 -0.637491
    outer loop
      vertex 0 12.5676 20.4084
      vertex 11 12.5 20.4901
      vertex 0 12.5 20.4901
    endloop
  endfacet
  facet normal 0 -0.770458 -0.637491
    outer loop
      vertex 11 12.5 20.4901
      vertex 0 12.5676 20.4084
      vertex 11 12.5676 20.4084
    endloop
  endfacet
  facet normal 0 0.982288 -0.187377
    outer loop
      vertex 11 -0.940861 16.94
      vertex 0 -0.764374 17.8652
      vertex 11 -0.764374 17.8652
    endloop
  endfacet
  facet normal 0 0.982288 -0.187377
    outer loop
      vertex 0 -0.764374 17.8652
      vertex 11 -0.940861 16.94
      vertex 0 -0.940861 16.94
    endloop
  endfacet
  facet normal 0 0.770329 -0.637647
    outer loop
      vertex 11 0.432372 20.4084
      vertex 0 0.5 20.4901
      vertex 11 0.5 20.4901
    endloop
  endfacet
  facet normal 0 0.770329 -0.637647
    outer loop
      vertex 0 0.5 20.4901
      vertex 11 0.432372 20.4084
      vertex 0 0.432372 20.4084
    endloop
  endfacet
  facet normal 0 -0.951035 0.309084
    outer loop
      vertex 0 13.4733 13.2391
      vertex 11 13.7644 14.1348
      vertex 0 13.7644 14.1348
    endloop
  endfacet
  facet normal 0 -0.951035 0.309084
    outer loop
      vertex 11 13.7644 14.1348
      vertex 0 13.4733 13.2391
      vertex 11 13.4733 13.2391
    endloop
  endfacet
  facet normal -0 0.587819 0.808992
    outer loop
      vertex 0 2.4813 9.66754
      vertex 11 1.71932 10.2212
      vertex 11 2.4813 9.66754
    endloop
  endfacet
  facet normal 0 0.587819 0.808992
    outer loop
      vertex 11 1.71932 10.2212
      vertex 0 2.4813 9.66754
      vertex 0 1.71932 10.2212
    endloop
  endfacet
  facet normal 0 0.904843 0.425746
    outer loop
      vertex 11 -0.0723009 12.3868
      vertex 0 -0.473324 13.2391
      vertex 11 -0.473324 13.2391
    endloop
  endfacet
  facet normal 0 0.904843 0.425746
    outer loop
      vertex 0 -0.473324 13.2391
      vertex 11 -0.0723009 12.3868
      vertex 0 -0.0723009 12.3868
    endloop
  endfacet
  facet normal -0 0.684518 0.728996
    outer loop
      vertex 0 1.71932 10.2212
      vertex 11 1.03273 10.8659
      vertex 11 1.71932 10.2212
    endloop
  endfacet
  facet normal 0 0.684518 0.728996
    outer loop
      vertex 11 1.03273 10.8659
      vertex 0 1.71932 10.2212
      vertex 0 1.03273 10.8659
    endloop
  endfacet
  facet normal 0 -0.125327 0.992115
    outer loop
      vertex 0 7.90536 8.63284
      vertex 11 6.97093 8.5148
      vertex 11 7.90536 8.63284
    endloop
  endfacet
  facet normal 0 -0.125327 0.992115
    outer loop
      vertex 11 6.97093 8.5148
      vertex 0 7.90536 8.63284
      vertex 0 6.97093 8.5148
    endloop
  endfacet
  facet normal 0 -0.248699 0.968581
    outer loop
      vertex 0 8.81763 8.86708
      vertex 11 7.90536 8.63284
      vertex 11 8.81763 8.86708
    endloop
  endfacet
  facet normal 0 -0.248699 0.968581
    outer loop
      vertex 11 7.90536 8.63284
      vertex 0 8.81763 8.86708
      vertex 0 7.90536 8.63284
    endloop
  endfacet
  facet normal 0 -0.982286 -0.18739
    outer loop
      vertex 0 13.9409 16.94
      vertex 11 13.7644 17.8652
      vertex 0 13.7644 17.8652
    endloop
  endfacet
  facet normal 0 -0.982286 -0.18739
    outer loop
      vertex 11 13.7644 17.8652
      vertex 0 13.9409 16.94
      vertex 11 13.9409 16.94
    endloop
  endfacet
  facet normal 0 0.998027 -0.0627897
    outer loop
      vertex 11 -1 16
      vertex 0 -0.940861 16.94
      vertex 11 -0.940861 16.94
    endloop
  endfacet
  facet normal 0 0.998027 -0.0627897
    outer loop
      vertex 0 -0.940861 16.94
      vertex 11 -1 16
      vertex 0 -1 16
    endloop
  endfacet
  facet normal 0 0.998027 0.0627897
    outer loop
      vertex 11 -0.940861 15.06
      vertex 0 -1 16
      vertex 11 -1 16
    endloop
  endfacet
  facet normal 0 0.998027 0.0627897
    outer loop
      vertex 0 -1 16
      vertex 11 -0.940861 15.06
      vertex 0 -0.940861 15.06
    endloop
  endfacet
  facet normal 0 0.904843 -0.425746
    outer loop
      vertex 11 -0.473324 18.7609
      vertex 0 -0.0723009 19.6132
      vertex 11 -0.0723009 19.6132
    endloop
  endfacet
  facet normal 0 0.904843 -0.425746
    outer loop
      vertex 0 -0.0723009 19.6132
      vertex 11 -0.473324 18.7609
      vertex 0 -0.473324 18.7609
    endloop
  endfacet
  facet normal 0 -0.982286 0.18739
    outer loop
      vertex 0 13.7644 14.1348
      vertex 11 13.9409 15.06
      vertex 0 13.9409 15.06
    endloop
  endfacet
  facet normal 0 -0.982286 0.18739
    outer loop
      vertex 11 13.9409 15.06
      vertex 0 13.7644 14.1348
      vertex 11 13.7644 14.1348
    endloop
  endfacet
  facet normal 0 -0.998029 0.0627484
    outer loop
      vertex 0 13.9409 15.06
      vertex 11 14 16
      vertex 0 14 16
    endloop
  endfacet
  facet normal 0 -0.998029 0.0627484
    outer loop
      vertex 11 14 16
      vertex 0 13.9409 15.06
      vertex 11 13.9409 15.06
    endloop
  endfacet
  facet normal 0 -0.904852 0.425725
    outer loop
      vertex 0 13.0723 12.3868
      vertex 11 13.4733 13.2391
      vertex 0 13.4733 13.2391
    endloop
  endfacet
  facet normal 0 -0.904852 0.425725
    outer loop
      vertex 11 13.4733 13.2391
      vertex 0 13.0723 12.3868
      vertex 11 13.0723 12.3868
    endloop
  endfacet
  facet normal 0 -0.77054 0.637392
    outer loop
      vertex 0 11.9673 10.8659
      vertex 11 12.5676 11.5916
      vertex 0 12.5676 11.5916
    endloop
  endfacet
  facet normal 0 -0.77054 0.637392
    outer loop
      vertex 11 12.5676 11.5916
      vertex 0 11.9673 10.8659
      vertex 11 11.9673 10.8659
    endloop
  endfacet
  facet normal 0 -0.844304 0.535865
    outer loop
      vertex 0 12.5676 11.5916
      vertex 11 13.0723 12.3868
      vertex 0 13.0723 12.3868
    endloop
  endfacet
  facet normal 0 -0.844304 0.535865
    outer loop
      vertex 11 13.0723 12.3868
      vertex 0 12.5676 11.5916
      vertex 11 12.5676 11.5916
    endloop
  endfacet
  facet normal 0 0.982288 0.187377
    outer loop
      vertex 11 -0.764374 14.1348
      vertex 0 -0.940861 15.06
      vertex 11 -0.940861 15.06
    endloop
  endfacet
  facet normal 0 0.982288 0.187377
    outer loop
      vertex 0 -0.940861 15.06
      vertex 11 -0.764374 14.1348
      vertex 0 -0.764374 14.1348
    endloop
  endfacet
  facet normal 0 0.95105 0.309036
    outer loop
      vertex 11 -0.473324 13.2391
      vertex 0 -0.764374 14.1348
      vertex 11 -0.764374 14.1348
    endloop
  endfacet
  facet normal 0 0.95105 0.309036
    outer loop
      vertex 0 -0.764374 14.1348
      vertex 11 -0.473324 13.2391
      vertex 0 -0.473324 13.2391
    endloop
  endfacet
  facet normal 0 0.77051 0.637428
    outer loop
      vertex 11 1.03273 10.8659
      vertex 0 0.432372 11.5916
      vertex 11 0.432372 11.5916
    endloop
  endfacet
  facet normal 0 0.77051 0.637428
    outer loop
      vertex 0 0.432372 11.5916
      vertex 11 1.03273 10.8659
      vertex 0 1.03273 10.8659
    endloop
  endfacet
  facet normal 0 -0.368126 0.929776
    outer loop
      vertex 0 9.69334 9.2138
      vertex 11 8.81763 8.86708
      vertex 11 9.69334 9.2138
    endloop
  endfacet
  facet normal 0 -0.368126 0.929776
    outer loop
      vertex 11 8.81763 8.86708
      vertex 0 9.69334 9.2138
      vertex 0 8.81763 8.86708
    endloop
  endfacet
  facet normal 0 -0.481749 0.876309
    outer loop
      vertex 0 10.5187 9.66754
      vertex 11 9.69334 9.2138
      vertex 11 10.5187 9.66754
    endloop
  endfacet
  facet normal 0 -0.481749 0.876309
    outer loop
      vertex 11 9.69334 9.2138
      vertex 0 10.5187 9.66754
      vertex 0 9.69334 9.2138
    endloop
  endfacet
  facet normal 0 -0.684513 0.729001
    outer loop
      vertex 0 11.9673 10.8659
      vertex 11 11.2807 10.2212
      vertex 11 11.9673 10.8659
    endloop
  endfacet
  facet normal 0 -0.684513 0.729001
    outer loop
      vertex 11 11.2807 10.2212
      vertex 0 11.9673 10.8659
      vertex 0 11.2807 10.2212
    endloop
  endfacet
  facet normal -0 0.368123 0.929777
    outer loop
      vertex 0 4.18237 8.86708
      vertex 11 3.30665 9.2138
      vertex 11 4.18237 8.86708
    endloop
  endfacet
  facet normal 0 0.368123 0.929777
    outer loop
      vertex 11 3.30665 9.2138
      vertex 0 4.18237 8.86708
      vertex 0 3.30665 9.2138
    endloop
  endfacet
  facet normal -0 0.125327 0.992115
    outer loop
      vertex 0 6.02907 8.5148
      vertex 11 5.09464 8.63284
      vertex 11 6.02907 8.5148
    endloop
  endfacet
  facet normal 0 0.125327 0.992115
    outer loop
      vertex 11 5.09464 8.63284
      vertex 0 6.02907 8.5148
      vertex 0 5.09464 8.63284
    endloop
  endfacet
  facet normal -0 0 1
    outer loop
      vertex 0 6.97093 8.5148
      vertex 11 6.02907 8.5148
      vertex 11 6.97093 8.5148
    endloop
  endfacet
  facet normal 0 0 1
    outer loop
      vertex 11 6.02907 8.5148
      vertex 0 6.97093 8.5148
      vertex 0 6.02907 8.5148
    endloop
  endfacet
  facet normal -0 0.481754 0.876307
    outer loop
      vertex 0 3.30665 9.2138
      vertex 11 2.4813 9.66754
      vertex 11 3.30665 9.2138
    endloop
  endfacet
  facet normal 0 0.481754 0.876307
    outer loop
      vertex 11 2.4813 9.66754
      vertex 0 3.30665 9.2138
      vertex 0 2.4813 9.66754
    endloop
  endfacet
  facet normal -0 0.248699 0.968581
    outer loop
      vertex 0 5.09464 8.63284
      vertex 11 4.18237 8.86708
      vertex 11 5.09464 8.63284
    endloop
  endfacet
  facet normal 0 0.248699 0.968581
    outer loop
      vertex 11 4.18237 8.86708
      vertex 0 5.09464 8.63284
      vertex 0 4.18237 8.86708
    endloop
  endfacet
  facet normal 0 1 -0
    outer loop
      vertex 11 0.5 20.4901
      vertex 0 0.5 23.3602
      vertex 11 0.5 23.3602
    endloop
  endfacet
  facet normal 0 1 0
    outer loop
      vertex 0 0.5 23.3602
      vertex 11 0.5 20.4901
      vertex 0 0.5 20.4901
    endloop
  endfacet
  facet normal 0 -1 0
    outer loop
      vertex 0 12.5 20.4901
      vertex 11 12.5 23.3602
      vertex 0 12.5 23.3602
    endloop
  endfacet
  facet normal 0 -1 -0
    outer loop
      vertex 11 12.5 23.3602
      vertex 0 12.5 20.4901
      vertex 11 12.5 20.4901
    endloop
  endfacet
  facet normal -1 0 0
    outer loop
      vertex -3 0 -7
      vertex -3 11 4.5
      vertex -3 11 -7
    endloop
  endfacet
  facet normal -1 -0 0
    outer loop
      vertex -3 11 4.5
      vertex -3 0 -7
      vertex -3 0 4.5
    endloop
  endfacet
  facet normal 1 -0 0
    outer loop
      vertex 16 0 4.5
      vertex 16 11 -7
      vertex 16 11 4.5
    endloop
  endfacet
  facet normal 1 0 0
    outer loop
      vertex 16 11 -7
      vertex 16 0 4.5
      vertex 16 0 -7
    endloop
  endfacet
  facet normal 0 -1 0
    outer loop
      vertex 1.03273 0 -1.8659
      vertex 0 0 4.5
      vertex -3 0 4.5
    endloop
  endfacet
  facet normal -0 -1 0
    outer loop
      vertex 6.02907 0 0.485201
      vertex 0 0 4.5
      vertex 5.09464 0 0.367155
    endloop
  endfacet
  facet normal 0 -1 0
    outer loop
      vertex 6.97093 0 0.485201
      vertex 11 0 4.5
      vertex 6.02907 0 0.485201
    endloop
  endfacet
  facet normal 0 -1 0
    outer loop
      vertex 0 0 4.5
      vertex 6.02907 0 0.485201
      vertex 11 0 4.5
    endloop
  endfacet
  facet normal 0 -1 0
    outer loop
      vertex 0 0 4.5
      vertex 4.18237 0 0.132924
      vertex 5.09464 0 0.367155
    endloop
  endfacet
  facet normal 0 -1 0
    outer loop
      vertex 0 0 4.5
      vertex 3.30665 0 -0.213797
      vertex 4.18237 0 0.132924
    endloop
  endfacet
  facet normal 0 -1 0
    outer loop
      vertex 0 0 4.5
      vertex 2.4813 0 -0.667541
      vertex 3.30665 0 -0.213797
    endloop
  endfacet
  facet normal 0 -1 0
    outer loop
      vertex 0 0 4.5
      vertex 1.71932 0 -1.22115
      vertex 2.4813 0 -0.667541
    endloop
  endfacet
  facet normal 0 -1 0
    outer loop
      vertex 0 0 4.5
      vertex 1.03273 0 -1.8659
      vertex 1.71932 0 -1.22115
    endloop
  endfacet
  facet normal 0 -1 0
    outer loop
      vertex -3 0 4.5
      vertex 0.432372 0 -2.59161
      vertex 1.03273 0 -1.8659
    endloop
  endfacet
  facet normal 0 -1 0
    outer loop
      vertex -3 0 4.5
      vertex -0.0723009 0 -3.38685
      vertex 0.432372 0 -2.59161
    endloop
  endfacet
  facet normal 0 -1 0
    outer loop
      vertex -3 0 4.5
      vertex -0.473324 0 -4.23907
      vertex -0.0723009 0 -3.38685
    endloop
  endfacet
  facet normal 0 -1 0
    outer loop
      vertex -3 0 -7
      vertex -0.473324 0 -4.23907
      vertex -3 0 4.5
    endloop
  endfacet
  facet normal 0 -1 0
    outer loop
      vertex -0.473324 0 -4.23907
      vertex -3 0 -7
      vertex -0.764374 0 -5.13483
    endloop
  endfacet
  facet normal 0 -1 0
    outer loop
      vertex -0.764374 0 -5.13483
      vertex -3 0 -7
      vertex -0.940861 0 -6.06
    endloop
  endfacet
  facet normal 0 -1 0
    outer loop
      vertex -3 0 -7
      vertex -1 0 -7
      vertex -0.940861 0 -6.06
    endloop
  endfacet
  facet normal 0 -1 0
    outer loop
      vertex -3 0 -7
      vertex -0.940861 0 -7.94
      vertex -1 0 -7
    endloop
  endfacet
  facet normal 0 -1 0
    outer loop
      vertex -2.92509 0 -8.19067
      vertex -0.940861 0 -7.94
      vertex -3 0 -7
    endloop
  endfacet
  facet normal 0 -1 0
    outer loop
      vertex -2.92509 0 -8.19067
      vertex -0.764374 0 -8.86517
      vertex -0.940861 0 -7.94
    endloop
  endfacet
  facet normal 0 -1 0
    outer loop
      vertex -2.70154 0 -9.36255
      vertex -0.764374 0 -8.86517
      vertex -2.92509 0 -8.19067
    endloop
  endfacet
  facet normal 0 -1 0
    outer loop
      vertex -2.70154 0 -9.36255
      vertex -0.473324 0 -9.76093
      vertex -0.764374 0 -8.86517
    endloop
  endfacet
  facet normal 0 -1 0
    outer loop
      vertex -2.33288 0 -10.4972
      vertex -0.473324 0 -9.76093
      vertex -2.70154 0 -9.36255
    endloop
  endfacet
  facet normal 0 -1 0
    outer loop
      vertex -2.33288 0 -10.4972
      vertex -0.0723009 0 -10.6132
      vertex -0.473324 0 -9.76093
    endloop
  endfacet
  facet normal 0 -1 0
    outer loop
      vertex -1.82491 0 -11.5767
      vertex -0.0723009 0 -10.6132
      vertex -2.33288 0 -10.4972
    endloop
  endfacet
  facet normal 0 -1 -0
    outer loop
      vertex -0.0723009 0 -10.6132
      vertex -1.82491 0 -11.5767
      vertex 0.432372 0 -11.4084
    endloop
  endfacet
  facet normal 0 -1 0
    outer loop
      vertex -1.18566 0 -12.584
      vertex 0.432372 0 -11.4084
      vertex -1.82491 0 -11.5767
    endloop
  endfacet
  facet normal 0 -1 -0
    outer loop
      vertex 0.432372 0 -11.4084
      vertex -1.18566 0 -12.584
      vertex 0.5 0 -11.4901
    endloop
  endfacet
  facet normal 0 -1 0
    outer loop
      vertex -0.425202 0 -13.5032
      vertex 0.5 0 -11.4901
      vertex -1.18566 0 -12.584
    endloop
  endfacet
  facet normal 0 -1 0
    outer loop
      vertex 0.444471 0 -14.3199
      vertex 0.5 0 -11.4901
      vertex -0.425202 0 -13.5032
    endloop
  endfacet
  facet normal 0 -1 -0
    outer loop
      vertex 0.5 0 -11.4901
      vertex 0.444471 0 -14.3199
      vertex 0.5 0 -14.3602
    endloop
  endfacet
  facet normal 0 -1 0
    outer loop
      vertex 7.90536 0 0.367155
      vertex 11 0 4.5
      vertex 6.97093 0 0.485201
    endloop
  endfacet
  facet normal 0 -1 0
    outer loop
      vertex 8.81763 0 0.132924
      vertex 11 0 4.5
      vertex 7.90536 0 0.367155
    endloop
  endfacet
  facet normal 0 -1 0
    outer loop
      vertex 9.69334 0 -0.213797
      vertex 11 0 4.5
      vertex 8.81763 0 0.132924
    endloop
  endfacet
  facet normal 0 -1 0
    outer loop
      vertex 10.5187 0 -0.667541
      vertex 11 0 4.5
      vertex 9.69334 0 -0.213797
    endloop
  endfacet
  facet normal 0 -1 0
    outer loop
      vertex 11.2807 0 -1.22115
      vertex 11 0 4.5
      vertex 10.5187 0 -0.667541
    endloop
  endfacet
  facet normal 0 -1 0
    outer loop
      vertex 11 0 4.5
      vertex 11.2807 0 -1.22115
      vertex 16 0 4.5
    endloop
  endfacet
  facet normal 0 -1 0
    outer loop
      vertex 11.9673 0 -1.8659
      vertex 16 0 4.5
      vertex 11.2807 0 -1.22115
    endloop
  endfacet
  facet normal 0 -1 0
    outer loop
      vertex 12.5676 0 -2.59161
      vertex 16 0 4.5
      vertex 11.9673 0 -1.8659
    endloop
  endfacet
  facet normal 0 -1 0
    outer loop
      vertex 13.0723 0 -3.38685
      vertex 16 0 4.5
      vertex 12.5676 0 -2.59161
    endloop
  endfacet
  facet normal 0 -1 0
    outer loop
      vertex 13.4733 0 -4.23907
      vertex 16 0 4.5
      vertex 13.0723 0 -3.38685
    endloop
  endfacet
  facet normal 0 -1 0
    outer loop
      vertex 16 0 -7
      vertex 13.4733 0 -4.23907
      vertex 13.7644 0 -5.13483
    endloop
  endfacet
  facet normal 0 -1 0
    outer loop
      vertex 16 0 -7
      vertex 13.7644 0 -5.13483
      vertex 13.9409 0 -6.06
    endloop
  endfacet
  facet normal 0 -1 0
    outer loop
      vertex 16 0 -7
      vertex 13.9409 0 -6.06
      vertex 14 0 -7
    endloop
  endfacet
  facet normal 0 -1 0
    outer loop
      vertex 13.4733 0 -4.23907
      vertex 16 0 -7
      vertex 16 0 4.5
    endloop
  endfacet
  facet normal 0 -1 0
    outer loop
      vertex 13.9409 0 -7.94
      vertex 16 0 -7
      vertex 14 0 -7
    endloop
  endfacet
  facet normal 0 -1 0
    outer loop
      vertex 13.9409 0 -7.94
      vertex 15.9251 0 -8.19067
      vertex 16 0 -7
    endloop
  endfacet
  facet normal 0 -1 0
    outer loop
      vertex 13.7644 0 -8.86517
      vertex 15.9251 0 -8.19067
      vertex 13.9409 0 -7.94
    endloop
  endfacet
  facet normal 0 -1 0
    outer loop
      vertex 13.7644 0 -8.86517
      vertex 15.7015 0 -9.36255
      vertex 15.9251 0 -8.19067
    endloop
  endfacet
  facet normal 0 -1 0
    outer loop
      vertex 13.4733 0 -9.76093
      vertex 15.7015 0 -9.36255
      vertex 13.7644 0 -8.86517
    endloop
  endfacet
  facet normal 0 -1 0
    outer loop
      vertex 13.4733 0 -9.76093
      vertex 15.3329 0 -10.4972
      vertex 15.7015 0 -9.36255
    endloop
  endfacet
  facet normal 0 -1 0
    outer loop
      vertex 13.0723 0 -10.6132
      vertex 15.3329 0 -10.4972
      vertex 13.4733 0 -9.76093
    endloop
  endfacet
  facet normal 0 -1 0
    outer loop
      vertex 14.8249 0 -11.5767
      vertex 13.0723 0 -10.6132
      vertex 12.5676 0 -11.4084
    endloop
  endfacet
  facet normal 0 -1 0
    outer loop
      vertex 14.1857 0 -12.584
      vertex 12.5676 0 -11.4084
      vertex 12.5 0 -11.4901
    endloop
  endfacet
  facet normal 0 -1 0
    outer loop
      vertex 13.0723 0 -10.6132
      vertex 14.8249 0 -11.5767
      vertex 15.3329 0 -10.4972
    endloop
  endfacet
  facet normal 0 -1 0
    outer loop
      vertex 12.5676 0 -11.4084
      vertex 14.1857 0 -12.584
      vertex 14.8249 0 -11.5767
    endloop
  endfacet
  facet normal 0 -1 0
    outer loop
      vertex 12.5 0 -11.4901
      vertex 13.4252 0 -13.5032
      vertex 14.1857 0 -12.584
    endloop
  endfacet
  facet normal 0 -1 0
    outer loop
      vertex 12.5 0 -11.4901
      vertex 12.5555 0 -14.3199
      vertex 13.4252 0 -13.5032
    endloop
  endfacet
  facet normal -0 -1 0
    outer loop
      vertex 12.5555 0 -14.3199
      vertex 12.5 0 -11.4901
      vertex 12.5 0 -14.3602
    endloop
  endfacet
  facet normal 0 1 -0
    outer loop
      vertex 11.2807 11 -1.22115
      vertex 11 11 4.5
      vertex 16 11 4.5
    endloop
  endfacet
  facet normal 0 1 0
    outer loop
      vertex 6.02907 11 0.485201
      vertex 11 11 4.5
      vertex 6.97093 11 0.485201
    endloop
  endfacet
  facet normal 0 1 0
    outer loop
      vertex 11 11 4.5
      vertex 6.02907 11 0.485201
      vertex 0 11 4.5
    endloop
  endfacet
  facet normal 0 1 0
    outer loop
      vertex 11 11 4.5
      vertex 7.90536 11 0.367155
      vertex 6.97093 11 0.485201
    endloop
  endfacet
  facet normal 0 1 0
    outer loop
      vertex 11 11 4.5
      vertex 8.81763 11 0.132924
      vertex 7.90536 11 0.367155
    endloop
  endfacet
  facet normal 0 1 0
    outer loop
      vertex 11 11 4.5
      vertex 9.69334 11 -0.213797
      vertex 8.81763 11 0.132924
    endloop
  endfacet
  facet normal 0 1 0
    outer loop
      vertex 11 11 4.5
      vertex 10.5187 11 -0.667541
      vertex 9.69334 11 -0.213797
    endloop
  endfacet
  facet normal 0 1 0
    outer loop
      vertex 11 11 4.5
      vertex 11.2807 11 -1.22115
      vertex 10.5187 11 -0.667541
    endloop
  endfacet
  facet normal 0 1 0
    outer loop
      vertex 16 11 4.5
      vertex 11.9673 11 -1.8659
      vertex 11.2807 11 -1.22115
    endloop
  endfacet
  facet normal 0 1 0
    outer loop
      vertex 16 11 4.5
      vertex 12.5676 11 -2.59161
      vertex 11.9673 11 -1.8659
    endloop
  endfacet
  facet normal 0 1 0
    outer loop
      vertex 16 11 4.5
      vertex 13.0723 11 -3.38685
      vertex 12.5676 11 -2.59161
    endloop
  endfacet
  facet normal 0 1 0
    outer loop
      vertex 16 11 4.5
      vertex 13.4733 11 -4.23907
      vertex 13.0723 11 -3.38685
    endloop
  endfacet
  facet normal 0 1 -0
    outer loop
      vertex 16 11 -7
      vertex 13.4733 11 -4.23907
      vertex 16 11 4.5
    endloop
  endfacet
  facet normal 0 1 0
    outer loop
      vertex 13.4733 11 -4.23907
      vertex 16 11 -7
      vertex 13.7644 11 -5.13483
    endloop
  endfacet
  facet normal 0 1 0
    outer loop
      vertex 13.7644 11 -5.13483
      vertex 16 11 -7
      vertex 13.9409 11 -6.06
    endloop
  endfacet
  facet normal 0 1 0
    outer loop
      vertex 16 11 -7
      vertex 14 11 -7
      vertex 13.9409 11 -6.06
    endloop
  endfacet
  facet normal 0 1 0
    outer loop
      vertex 16 11 -7
      vertex 13.9409 11 -7.94
      vertex 14 11 -7
    endloop
  endfacet
  facet normal 0 1 -0
    outer loop
      vertex 15.9251 11 -8.19067
      vertex 13.9409 11 -7.94
      vertex 16 11 -7
    endloop
  endfacet
  facet normal 0 1 0
    outer loop
      vertex 15.9251 11 -8.19067
      vertex 13.7644 11 -8.86517
      vertex 13.9409 11 -7.94
    endloop
  endfacet
  facet normal 0 1 -0
    outer loop
      vertex 15.7015 11 -9.36255
      vertex 13.7644 11 -8.86517
      vertex 15.9251 11 -8.19067
    endloop
  endfacet
  facet normal 0 1 0
    outer loop
      vertex 15.7015 11 -9.36255
      vertex 13.4733 11 -9.76093
      vertex 13.7644 11 -8.86517
    endloop
  endfacet
  facet normal 0 1 -0
    outer loop
      vertex 15.3329 11 -10.4972
      vertex 13.4733 11 -9.76093
      vertex 15.7015 11 -9.36255
    endloop
  endfacet
  facet normal 0 1 0
    outer loop
      vertex 15.3329 11 -10.4972
      vertex 13.0723 11 -10.6132
      vertex 13.4733 11 -9.76093
    endloop
  endfacet
  facet normal 0 1 -0
    outer loop
      vertex 14.8249 11 -11.5767
      vertex 13.0723 11 -10.6132
      vertex 15.3329 11 -10.4972
    endloop
  endfacet
  facet normal 0 1 0
    outer loop
      vertex 13.0723 11 -10.6132
      vertex 14.8249 11 -11.5767
      vertex 12.5676 11 -11.4084
    endloop
  endfacet
  facet normal 0 1 -0
    outer loop
      vertex 14.1857 11 -12.584
      vertex 12.5676 11 -11.4084
      vertex 14.8249 11 -11.5767
    endloop
  endfacet
  facet normal 0 1 0
    outer loop
      vertex 12.5676 11 -11.4084
      vertex 14.1857 11 -12.584
      vertex 12.5 11 -11.4901
    endloop
  endfacet
  facet normal 0 1 -0
    outer loop
      vertex 13.4252 11 -13.5032
      vertex 12.5 11 -11.4901
      vertex 14.1857 11 -12.584
    endloop
  endfacet
  facet normal 0 1 -0
    outer loop
      vertex 12.5555 11 -14.3199
      vertex 12.5 11 -11.4901
      vertex 13.4252 11 -13.5032
    endloop
  endfacet
  facet normal 0 1 0
    outer loop
      vertex 12.5 11 -11.4901
      vertex 12.5555 11 -14.3199
      vertex 12.5 11 -14.3602
    endloop
  endfacet
  facet normal 0 1 -0
    outer loop
      vertex 5.09464 11 0.367155
      vertex 0 11 4.5
      vertex 6.02907 11 0.485201
    endloop
  endfacet
  facet normal 0 1 -0
    outer loop
      vertex 4.18237 11 0.132924
      vertex 0 11 4.5
      vertex 5.09464 11 0.367155
    endloop
  endfacet
  facet normal 0 1 -0
    outer loop
      vertex 3.30665 11 -0.213797
      vertex 0 11 4.5
      vertex 4.18237 11 0.132924
    endloop
  endfacet
  facet normal 0 1 -0
    outer loop
      vertex 2.4813 11 -0.667541
      vertex 0 11 4.5
      vertex 3.30665 11 -0.213797
    endloop
  endfacet
  facet normal 0 1 -0
    outer loop
      vertex 1.71932 11 -1.22115
      vertex 0 11 4.5
      vertex 2.4813 11 -0.667541
    endloop
  endfacet
  facet normal 0 1 -0
    outer loop
      vertex 1.03273 11 -1.8659
      vertex 0 11 4.5
      vertex 1.71932 11 -1.22115
    endloop
  endfacet
  facet normal 0 1 0
    outer loop
      vertex 0 11 4.5
      vertex 1.03273 11 -1.8659
      vertex -3 11 4.5
    endloop
  endfacet
  facet normal 0 1 -0
    outer loop
      vertex 0.432372 11 -2.59161
      vertex -3 11 4.5
      vertex 1.03273 11 -1.8659
    endloop
  endfacet
  facet normal 0 1 -0
    outer loop
      vertex -0.0723009 11 -3.38685
      vertex -3 11 4.5
      vertex 0.432372 11 -2.59161
    endloop
  endfacet
  facet normal 0 1 -0
    outer loop
      vertex -0.473324 11 -4.23907
      vertex -3 11 4.5
      vertex -0.0723009 11 -3.38685
    endloop
  endfacet
  facet normal 0 1 0
    outer loop
      vertex -3 11 -7
      vertex -0.473324 11 -4.23907
      vertex -0.764374 11 -5.13483
    endloop
  endfacet
  facet normal 0 1 0
    outer loop
      vertex -3 11 -7
      vertex -0.764374 11 -5.13483
      vertex -0.940861 11 -6.06
    endloop
  endfacet
  facet normal 0 1 0
    outer loop
      vertex -3 11 -7
      vertex -0.940861 11 -6.06
      vertex -1 11 -7
    endloop
  endfacet
  facet normal 0 1 0
    outer loop
      vertex -0.473324 11 -4.23907
      vertex -3 11 -7
      vertex -3 11 4.5
    endloop
  endfacet
  facet normal 0 1 0
    outer loop
      vertex -0.940861 11 -7.94
      vertex -3 11 -7
      vertex -1 11 -7
    endloop
  endfacet
  facet normal 0 1 0
    outer loop
      vertex -0.940861 11 -7.94
      vertex -2.92509 11 -8.19067
      vertex -3 11 -7
    endloop
  endfacet
  facet normal 0 1 0
    outer loop
      vertex -0.764374 11 -8.86517
      vertex -2.92509 11 -8.19067
      vertex -0.940861 11 -7.94
    endloop
  endfacet
  facet normal 0 1 0
    outer loop
      vertex -0.764374 11 -8.86517
      vertex -2.70154 11 -9.36255
      vertex -2.92509 11 -8.19067
    endloop
  endfacet
  facet normal 0 1 0
    outer loop
      vertex -0.473324 11 -9.76093
      vertex -2.70154 11 -9.36255
      vertex -0.764374 11 -8.86517
    endloop
  endfacet
  facet normal 0 1 0
    outer loop
      vertex -0.473324 11 -9.76093
      vertex -2.33288 11 -10.4972
      vertex -2.70154 11 -9.36255
    endloop
  endfacet
  facet normal 0 1 0
    outer loop
      vertex -0.0723009 11 -10.6132
      vertex -2.33288 11 -10.4972
      vertex -0.473324 11 -9.76093
    endloop
  endfacet
  facet normal 0 1 0
    outer loop
      vertex -1.82491 11 -11.5767
      vertex -0.0723009 11 -10.6132
      vertex 0.432372 11 -11.4084
    endloop
  endfacet
  facet normal 0 1 0
    outer loop
      vertex -1.18566 11 -12.584
      vertex 0.432372 11 -11.4084
      vertex 0.5 11 -11.4901
    endloop
  endfacet
  facet normal 0 1 0
    outer loop
      vertex -0.0723009 11 -10.6132
      vertex -1.82491 11 -11.5767
      vertex -2.33288 11 -10.4972
    endloop
  endfacet
  facet normal 0 1 0
    outer loop
      vertex 0.432372 11 -11.4084
      vertex -1.18566 11 -12.584
      vertex -1.82491 11 -11.5767
    endloop
  endfacet
  facet normal 0 1 0
    outer loop
      vertex 0.5 11 -11.4901
      vertex -0.425202 11 -13.5032
      vertex -1.18566 11 -12.584
    endloop
  endfacet
  facet normal 0 1 0
    outer loop
      vertex 0.5 11 -11.4901
      vertex 0.444471 11 -14.3199
      vertex -0.425202 11 -13.5032
    endloop
  endfacet
  facet normal -0 1 0
    outer loop
      vertex 0.444471 11 -14.3199
      vertex 0.5 11 -11.4901
      vertex 0.5 11 -14.3602
    endloop
  endfacet
  facet normal 0.998027 0 -0.0627817
    outer loop
      vertex 16 0 -7
      vertex 15.9251 11 -8.19067
      vertex 16 11 -7
    endloop
  endfacet
  facet normal 0.998027 0 -0.0627817
    outer loop
      vertex 15.9251 11 -8.19067
      vertex 16 0 -7
      vertex 15.9251 0 -8.19067
    endloop
  endfacet
  facet normal 0.587565 0 -0.809177
    outer loop
      vertex 12.5 0 -14.3602
      vertex 12.5555 11 -14.3199
      vertex 12.5555 0 -14.3199
    endloop
  endfacet
  facet normal 0.587565 0 -0.809177
    outer loop
      vertex 12.5555 11 -14.3199
      vertex 12.5 0 -14.3602
      vertex 12.5 11 -14.3602
    endloop
  endfacet
  facet normal -0.951059 0 -0.309009
    outer loop
      vertex -2.33288 0 -10.4972
      vertex -2.70154 11 -9.36255
      vertex -2.33288 11 -10.4972
    endloop
  endfacet
  facet normal -0.951059 -0 -0.309009
    outer loop
      vertex -2.70154 11 -9.36255
      vertex -2.33288 0 -10.4972
      vertex -2.70154 0 -9.36255
    endloop
  endfacet
  facet normal 0.904819 0 -0.425797
    outer loop
      vertex 15.3329 0 -10.4972
      vertex 14.8249 11 -11.5767
      vertex 15.3329 11 -10.4972
    endloop
  endfacet
  facet normal 0.904819 0 -0.425797
    outer loop
      vertex 14.8249 11 -11.5767
      vertex 15.3329 0 -10.4972
      vertex 14.8249 0 -11.5767
    endloop
  endfacet
  facet normal 0.982279 0 -0.187423
    outer loop
      vertex 15.9251 0 -8.19067
      vertex 15.7015 11 -9.36255
      vertex 15.9251 11 -8.19067
    endloop
  endfacet
  facet normal 0.982279 0 -0.187423
    outer loop
      vertex 15.7015 11 -9.36255
      vertex 15.9251 0 -8.19067
      vertex 15.7015 0 -9.36255
    endloop
  endfacet
  facet normal 0.844348 0 -0.535796
    outer loop
      vertex 14.8249 0 -11.5767
      vertex 14.1857 11 -12.584
      vertex 14.8249 11 -11.5767
    endloop
  endfacet
  facet normal 0.844348 0 -0.535796
    outer loop
      vertex 14.1857 11 -12.584
      vertex 14.8249 0 -11.5767
      vertex 14.1857 0 -12.584
    endloop
  endfacet
  facet normal 0.684546 0 -0.72897
    outer loop
      vertex 12.5555 0 -14.3199
      vertex 13.4252 11 -13.5032
      vertex 13.4252 0 -13.5032
    endloop
  endfacet
  facet normal 0.684546 0 -0.72897
    outer loop
      vertex 13.4252 11 -13.5032
      vertex 12.5555 0 -14.3199
      vertex 12.5555 11 -14.3199
    endloop
  endfacet
  facet normal -0.982287 0 -0.187383
    outer loop
      vertex -2.70154 0 -9.36255
      vertex -2.92509 11 -8.19067
      vertex -2.70154 11 -9.36255
    endloop
  endfacet
  facet normal -0.982287 -0 -0.187383
    outer loop
      vertex -2.92509 11 -8.19067
      vertex -2.70154 0 -9.36255
      vertex -2.92509 0 -8.19067
    endloop
  endfacet
  facet normal -0.998027 0 -0.06279
    outer loop
      vertex -2.92509 0 -8.19067
      vertex -3 11 -7
      vertex -2.92509 11 -8.19067
    endloop
  endfacet
  facet normal -0.998027 -0 -0.06279
    outer loop
      vertex -3 11 -7
      vertex -2.92509 0 -8.19067
      vertex -3 0 -7
    endloop
  endfacet
  facet normal -0.904828 0 -0.425776
    outer loop
      vertex -1.82491 0 -11.5767
      vertex -2.33288 11 -10.4972
      vertex -1.82491 11 -11.5767
    endloop
  endfacet
  facet normal -0.904828 -0 -0.425776
    outer loop
      vertex -2.33288 11 -10.4972
      vertex -1.82491 0 -11.5767
      vertex -2.33288 0 -10.4972
    endloop
  endfacet
  facet normal -0.844329 0 -0.535826
    outer loop
      vertex -1.18566 0 -12.584
      vertex -1.82491 11 -11.5767
      vertex -1.18566 11 -12.584
    endloop
  endfacet
  facet normal -0.844329 -0 -0.535826
    outer loop
      vertex -1.82491 11 -11.5767
      vertex -1.18566 0 -12.584
      vertex -1.82491 0 -11.5767
    endloop
  endfacet
  facet normal -0.587364 0 -0.809323
    outer loop
      vertex 0.444471 0 -14.3199
      vertex 0.5 11 -14.3602
      vertex 0.5 0 -14.3602
    endloop
  endfacet
  facet normal -0.587364 0 -0.809323
    outer loop
      vertex 0.5 11 -14.3602
      vertex 0.444471 0 -14.3199
      vertex 0.444471 11 -14.3199
    endloop
  endfacet
  facet normal 0.951074 0 -0.308964
    outer loop
      vertex 15.7015 0 -9.36255
      vertex 15.3329 11 -10.4972
      vertex 15.7015 11 -9.36255
    endloop
  endfacet
  facet normal 0.951074 0 -0.308964
    outer loop
      vertex 15.3329 11 -10.4972
      vertex 15.7015 0 -9.36255
      vertex 15.3329 0 -10.4972
    endloop
  endfacet
  facet normal 0.770484 0 -0.63746
    outer loop
      vertex 14.1857 0 -12.584
      vertex 13.4252 11 -13.5032
      vertex 14.1857 11 -12.584
    endloop
  endfacet
  facet normal 0.770484 0 -0.63746
    outer loop
      vertex 13.4252 11 -13.5032
      vertex 14.1857 0 -12.584
      vertex 13.4252 0 -13.5032
    endloop
  endfacet
  facet normal -0.684557 0 -0.728959
    outer loop
      vertex -0.425202 0 -13.5032
      vertex 0.444471 11 -14.3199
      vertex 0.444471 0 -14.3199
    endloop
  endfacet
  facet normal -0.684557 0 -0.728959
    outer loop
      vertex 0.444471 11 -14.3199
      vertex -0.425202 0 -13.5032
      vertex -0.425202 11 -13.5032
    endloop
  endfacet
  facet normal -0.770501 0 -0.637439
    outer loop
      vertex -0.425202 0 -13.5032
      vertex -1.18566 11 -12.584
      vertex -0.425202 11 -13.5032
    endloop
  endfacet
  facet normal -0.770501 -0 -0.637439
    outer loop
      vertex -1.18566 11 -12.584
      vertex -0.425202 0 -13.5032
      vertex -1.18566 0 -12.584
    endloop
  endfacet
  facet normal -0.998029 0 0.0627484
    outer loop
      vertex 13.9409 0 -7.94
      vertex 14 11 -7
      vertex 13.9409 11 -7.94
    endloop
  endfacet
  facet normal -0.998029 0 0.0627484
    outer loop
      vertex 14 11 -7
      vertex 13.9409 0 -7.94
      vertex 14 0 -7
    endloop
  endfacet
  facet normal -0.904847 0 0.425738
    outer loop
      vertex 13.0723 0 -10.6132
      vertex 13.4733 11 -9.76093
      vertex 13.0723 11 -10.6132
    endloop
  endfacet
  facet normal -0.904847 0 0.425738
    outer loop
      vertex 13.4733 11 -9.76093
      vertex 13.0723 0 -10.6132
      vertex 13.4733 0 -9.76093
    endloop
  endfacet
  facet normal 0.951057 -0 0.309017
    outer loop
      vertex -0.764374 0 -8.86517
      vertex -0.473324 11 -9.76093
      vertex -0.764374 11 -8.86517
    endloop
  endfacet
  facet normal 0.951057 0 0.309017
    outer loop
      vertex -0.473324 11 -9.76093
      vertex -0.764374 0 -8.86517
      vertex -0.473324 0 -9.76093
    endloop
  endfacet
  facet normal -0.844304 0 0.535865
    outer loop
      vertex 12.5676 0 -11.4084
      vertex 13.0723 11 -10.6132
      vertex 12.5676 11 -11.4084
    endloop
  endfacet
  facet normal -0.844304 0 0.535865
    outer loop
      vertex 13.0723 11 -10.6132
      vertex 12.5676 0 -11.4084
      vertex 13.0723 0 -10.6132
    endloop
  endfacet
  facet normal 0.844317 -0 0.535845
    outer loop
      vertex -0.0723009 0 -10.6132
      vertex 0.432372 11 -11.4084
      vertex -0.0723009 11 -10.6132
    endloop
  endfacet
  facet normal 0.844317 0 0.535845
    outer loop
      vertex 0.432372 11 -11.4084
      vertex -0.0723009 0 -10.6132
      vertex 0.432372 0 -11.4084
    endloop
  endfacet
  facet normal -0.587774 0 -0.809025
    outer loop
      vertex 10.5187 0 -0.667541
      vertex 11.2807 11 -1.22115
      vertex 11.2807 0 -1.22115
    endloop
  endfacet
  facet normal -0.587774 0 -0.809025
    outer loop
      vertex 11.2807 11 -1.22115
      vertex 10.5187 0 -0.667541
      vertex 10.5187 11 -0.667541
    endloop
  endfacet
  facet normal 0.844329 0 -0.535825
    outer loop
      vertex 0.432372 0 -2.59161
      vertex -0.0723009 11 -3.38685
      vertex 0.432372 11 -2.59161
    endloop
  endfacet
  facet normal 0.844329 0 -0.535825
    outer loop
      vertex -0.0723009 11 -3.38685
      vertex 0.432372 0 -2.59161
      vertex -0.0723009 0 -3.38685
    endloop
  endfacet
  facet normal -0.951041 0 0.309065
    outer loop
      vertex 13.4733 0 -9.76093
      vertex 13.7644 11 -8.86517
      vertex 13.4733 11 -9.76093
    endloop
  endfacet
  facet normal -0.951041 0 0.309065
    outer loop
      vertex 13.7644 11 -8.86517
      vertex 13.4733 0 -9.76093
      vertex 13.7644 0 -8.86517
    endloop
  endfacet
  facet normal -0.770458 0 0.637491
    outer loop
      vertex 12.5 0 -11.4901
      vertex 12.5676 11 -11.4084
      vertex 12.5 11 -11.4901
    endloop
  endfacet
  facet normal -0.770458 0 0.637491
    outer loop
      vertex 12.5676 11 -11.4084
      vertex 12.5 0 -11.4901
      vertex 12.5676 0 -11.4084
    endloop
  endfacet
  facet normal 0.982287 -0 0.187383
    outer loop
      vertex -0.940861 0 -7.94
      vertex -0.764374 11 -8.86517
      vertex -0.940861 11 -7.94
    endloop
  endfacet
  facet normal 0.982287 0 0.187383
    outer loop
      vertex -0.764374 11 -8.86517
      vertex -0.940861 0 -7.94
      vertex -0.764374 0 -8.86517
    endloop
  endfacet
  facet normal 0.770329 -0 0.637647
    outer loop
      vertex 0.432372 0 -11.4084
      vertex 0.5 11 -11.4901
      vertex 0.432372 11 -11.4084
    endloop
  endfacet
  facet normal 0.770329 0 0.637647
    outer loop
      vertex 0.5 11 -11.4901
      vertex 0.432372 0 -11.4084
      vertex 0.5 0 -11.4901
    endloop
  endfacet
  facet normal -0.951041 0 -0.309065
    outer loop
      vertex 13.7644 0 -5.13483
      vertex 13.4733 11 -4.23907
      vertex 13.7644 11 -5.13483
    endloop
  endfacet
  facet normal -0.951041 -0 -0.309065
    outer loop
      vertex 13.4733 11 -4.23907
      vertex 13.7644 0 -5.13483
      vertex 13.4733 0 -4.23907
    endloop
  endfacet
  facet normal 0.587784 0 -0.809018
    outer loop
      vertex 1.71932 0 -1.22115
      vertex 2.4813 11 -0.667541
      vertex 2.4813 0 -0.667541
    endloop
  endfacet
  facet normal 0.587784 0 -0.809018
    outer loop
      vertex 2.4813 11 -0.667541
      vertex 1.71932 0 -1.22115
      vertex 1.71932 11 -1.22115
    endloop
  endfacet
  facet normal 0.904828 0 -0.425778
    outer loop
      vertex -0.0723009 0 -3.38685
      vertex -0.473324 11 -4.23907
      vertex -0.0723009 11 -3.38685
    endloop
  endfacet
  facet normal 0.904828 0 -0.425778
    outer loop
      vertex -0.473324 11 -4.23907
      vertex -0.0723009 0 -3.38685
      vertex -0.473324 0 -4.23907
    endloop
  endfacet
  facet normal 0.684547 0 -0.728969
    outer loop
      vertex 1.03273 0 -1.8659
      vertex 1.71932 11 -1.22115
      vertex 1.71932 0 -1.22115
    endloop
  endfacet
  facet normal 0.684547 0 -0.728969
    outer loop
      vertex 1.71932 11 -1.22115
      vertex 1.03273 0 -1.8659
      vertex 1.03273 11 -1.8659
    endloop
  endfacet
  facet normal -0.125333 0 -0.992115
    outer loop
      vertex 6.97093 0 0.485201
      vertex 7.90536 11 0.367155
      vertex 7.90536 0 0.367155
    endloop
  endfacet
  facet normal -0.125333 0 -0.992115
    outer loop
      vertex 7.90536 11 0.367155
      vertex 6.97093 0 0.485201
      vertex 6.97093 11 0.485201
    endloop
  endfacet
  facet normal -0.24869 0 -0.968583
    outer loop
      vertex 7.90536 0 0.367155
      vertex 8.81763 11 0.132924
      vertex 8.81763 0 0.132924
    endloop
  endfacet
  facet normal -0.24869 0 -0.968583
    outer loop
      vertex 8.81763 11 0.132924
      vertex 7.90536 0 0.367155
      vertex 7.90536 11 0.367155
    endloop
  endfacet
  facet normal -0.982284 0 0.187396
    outer loop
      vertex 13.7644 0 -8.86517
      vertex 13.9409 11 -7.94
      vertex 13.7644 11 -8.86517
    endloop
  endfacet
  facet normal -0.982284 0 0.187396
    outer loop
      vertex 13.9409 11 -7.94
      vertex 13.7644 0 -8.86517
      vertex 13.9409 0 -7.94
    endloop
  endfacet
  facet normal 0.998027 -0 0.0627897
    outer loop
      vertex -1 0 -7
      vertex -0.940861 11 -7.94
      vertex -1 11 -7
    endloop
  endfacet
  facet normal 0.998027 0 0.0627897
    outer loop
      vertex -0.940861 11 -7.94
      vertex -1 0 -7
      vertex -0.940861 0 -7.94
    endloop
  endfacet
  facet normal 0.998027 0 -0.0627897
    outer loop
      vertex -0.940861 0 -6.06
      vertex -1 11 -7
      vertex -0.940861 11 -6.06
    endloop
  endfacet
  facet normal 0.998027 0 -0.0627897
    outer loop
      vertex -1 11 -7
      vertex -0.940861 0 -6.06
      vertex -1 0 -7
    endloop
  endfacet
  facet normal 0.904837 -0 0.425758
    outer loop
      vertex -0.473324 0 -9.76093
      vertex -0.0723009 11 -10.6132
      vertex -0.473324 11 -9.76093
    endloop
  endfacet
  facet normal 0.904837 0 0.425758
    outer loop
      vertex -0.0723009 11 -10.6132
      vertex -0.473324 0 -9.76093
      vertex -0.0723009 0 -10.6132
    endloop
  endfacet
  facet normal -0.982284 0 -0.187396
    outer loop
      vertex 13.9409 0 -6.06
      vertex 13.7644 11 -5.13483
      vertex 13.9409 11 -6.06
    endloop
  endfacet
  facet normal -0.982284 -0 -0.187396
    outer loop
      vertex 13.7644 11 -5.13483
      vertex 13.9409 0 -6.06
      vertex 13.7644 0 -5.13483
    endloop
  endfacet
  facet normal -0.998029 0 -0.0627484
    outer loop
      vertex 14 0 -7
      vertex 13.9409 11 -6.06
      vertex 14 11 -7
    endloop
  endfacet
  facet normal -0.998029 -0 -0.0627484
    outer loop
      vertex 13.9409 11 -6.06
      vertex 14 0 -7
      vertex 13.9409 0 -6.06
    endloop
  endfacet
  facet normal -0.904837 0 -0.425758
    outer loop
      vertex 13.4733 0 -4.23907
      vertex 13.0723 11 -3.38685
      vertex 13.4733 11 -4.23907
    endloop
  endfacet
  facet normal -0.904837 -0 -0.425758
    outer loop
      vertex 13.0723 11 -3.38685
      vertex 13.4733 0 -4.23907
      vertex 13.0723 0 -3.38685
    endloop
  endfacet
  facet normal -0.770544 0 -0.637386
    outer loop
      vertex 12.5676 0 -2.59161
      vertex 11.9673 11 -1.8659
      vertex 12.5676 11 -2.59161
    endloop
  endfacet
  facet normal -0.770544 -0 -0.637386
    outer loop
      vertex 11.9673 11 -1.8659
      vertex 12.5676 0 -2.59161
      vertex 11.9673 0 -1.8659
    endloop
  endfacet
  facet normal -0.844316 0 -0.535846
    outer loop
      vertex 13.0723 0 -3.38685
      vertex 12.5676 11 -2.59161
      vertex 13.0723 11 -3.38685
    endloop
  endfacet
  facet normal -0.844316 -0 -0.535846
    outer loop
      vertex 12.5676 11 -2.59161
      vertex 13.0723 0 -3.38685
      vertex 12.5676 0 -2.59161
    endloop
  endfacet
  facet normal 0.982287 0 -0.187383
    outer loop
      vertex -0.764374 0 -5.13483
      vertex -0.940861 11 -6.06
      vertex -0.764374 11 -5.13483
    endloop
  endfacet
  facet normal 0.982287 0 -0.187383
    outer loop
      vertex -0.940861 11 -6.06
      vertex -0.764374 0 -5.13483
      vertex -0.940861 0 -6.06
    endloop
  endfacet
  facet normal 0.951057 0 -0.309017
    outer loop
      vertex -0.473324 0 -4.23907
      vertex -0.764374 11 -5.13483
      vertex -0.473324 11 -4.23907
    endloop
  endfacet
  facet normal 0.951057 0 -0.309017
    outer loop
      vertex -0.764374 11 -5.13483
      vertex -0.473324 0 -4.23907
      vertex -0.764374 0 -5.13483
    endloop
  endfacet
  facet normal 0.770514 0 -0.637423
    outer loop
      vertex 1.03273 0 -1.8659
      vertex 0.432372 11 -2.59161
      vertex 1.03273 11 -1.8659
    endloop
  endfacet
  facet normal 0.770514 0 -0.637423
    outer loop
      vertex 0.432372 11 -2.59161
      vertex 1.03273 0 -1.8659
      vertex 0.432372 0 -2.59161
    endloop
  endfacet
  facet normal -0.368127 0 -0.929775
    outer loop
      vertex 8.81763 0 0.132924
      vertex 9.69334 11 -0.213797
      vertex 9.69334 0 -0.213797
    endloop
  endfacet
  facet normal -0.368127 0 -0.929775
    outer loop
      vertex 9.69334 11 -0.213797
      vertex 8.81763 0 0.132924
      vertex 8.81763 11 0.132924
    endloop
  endfacet
  facet normal -0.481752 0 -0.876307
    outer loop
      vertex 9.69334 0 -0.213797
      vertex 10.5187 11 -0.667541
      vertex 10.5187 0 -0.667541
    endloop
  endfacet
  facet normal -0.481752 0 -0.876307
    outer loop
      vertex 10.5187 11 -0.667541
      vertex 9.69334 0 -0.213797
      vertex 9.69334 11 -0.213797
    endloop
  endfacet
  facet normal -0.684541 0 -0.728974
    outer loop
      vertex 11.2807 0 -1.22115
      vertex 11.9673 11 -1.8659
      vertex 11.9673 0 -1.8659
    endloop
  endfacet
  facet normal -0.684541 0 -0.728974
    outer loop
      vertex 11.9673 11 -1.8659
      vertex 11.2807 0 -1.22115
      vertex 11.2807 11 -1.22115
    endloop
  endfacet
  facet normal 0.368124 0 -0.929777
    outer loop
      vertex 3.30665 0 -0.213797
      vertex 4.18237 11 0.132924
      vertex 4.18237 0 0.132924
    endloop
  endfacet
  facet normal 0.368124 0 -0.929777
    outer loop
      vertex 4.18237 11 0.132924
      vertex 3.30665 0 -0.213797
      vertex 3.30665 11 -0.213797
    endloop
  endfacet
  facet normal 0.125333 0 -0.992115
    outer loop
      vertex 5.09464 0 0.367155
      vertex 6.02907 11 0.485201
      vertex 6.02907 0 0.485201
    endloop
  endfacet
  facet normal 0.125333 0 -0.992115
    outer loop
      vertex 6.02907 11 0.485201
      vertex 5.09464 0 0.367155
      vertex 5.09464 11 0.367155
    endloop
  endfacet
  facet normal 0 0 -1
    outer loop
      vertex 6.02907 0 0.485201
      vertex 6.97093 11 0.485201
      vertex 6.97093 0 0.485201
    endloop
  endfacet
  facet normal -0 0 -1
    outer loop
      vertex 6.97093 11 0.485201
      vertex 6.02907 0 0.485201
      vertex 6.02907 11 0.485201
    endloop
  endfacet
  facet normal 0.481757 0 -0.876305
    outer loop
      vertex 2.4813 0 -0.667541
      vertex 3.30665 11 -0.213797
      vertex 3.30665 0 -0.213797
    endloop
  endfacet
  facet normal 0.481757 0 -0.876305
    outer loop
      vertex 3.30665 11 -0.213797
      vertex 2.4813 0 -0.667541
      vertex 2.4813 11 -0.667541
    endloop
  endfacet
  facet normal 0.24869 0 -0.968583
    outer loop
      vertex 4.18237 0 0.132924
      vertex 5.09464 11 0.367155
      vertex 5.09464 0 0.367155
    endloop
  endfacet
  facet normal 0.24869 0 -0.968583
    outer loop
      vertex 5.09464 11 0.367155
      vertex 4.18237 0 0.132924
      vertex 4.18237 11 0.132924
    endloop
  endfacet
  facet normal 1 -0 0
    outer loop
      vertex 0.5 0 -11.4901
      vertex 0.5 11 -14.3602
      vertex 0.5 11 -11.4901
    endloop
  endfacet
  facet normal 1 0 0
    outer loop
      vertex 0.5 11 -14.3602
      vertex 0.5 0 -11.4901
      vertex 0.5 0 -14.3602
    endloop
  endfacet
  facet normal -1 0 0
    outer loop
      vertex 12.5 0 -14.3602
      vertex 12.5 11 -11.4901
      vertex 12.5 11 -14.3602
    endloop
  endfacet
  facet normal -1 -0 0
    outer loop
      vertex 12.5 11 -11.4901
      vertex 12.5 0 -14.3602
      vertex 12.5 0 -11.4901
    endloop
  endfacet
endsolid OpenSCAD_Model
